<?xml version="1.0" standalone="no"?>
<!DOCTYPE svg PUBLIC "-//W3C//DTD SVG 20010904//EN"
 "http://www.w3.org/TR/2001/REC-SVG-20010904/DTD/svg10.dtd">
<svg version="1.0" xmlns="http://www.w3.org/2000/svg"
 width="278.000000pt" height="178.000000pt" viewBox="0 0 278.000000 178.000000"
 preserveAspectRatio="xMidYMid meet">
<metadata>
Created by potrace 1.16, written by Peter Selinger 2001-2019
</metadata>
<g transform="translate(0.000000,178.000000) scale(0.100000,-0.100000)"
fill="#784c36" stroke="none">
<path d="M327 1770 c-16 -5 -34 -13 -41 -19 -6 -6 -32 -13 -56 -17 -87 -13
-161 -69 -201 -151 -19 -39 -21 -61 -20 -164 0 -66 5 -150 11 -187 35 -233 69
-363 118 -450 34 -60 124 -152 182 -185 52 -29 170 -67 210 -67 l28 0 4 -137
c8 -235 63 -332 214 -378 129 -39 285 7 399 119 77 75 159 206 263 417 63 128
115 189 160 189 50 0 61 -9 107 -89 66 -114 85 -131 146 -131 60 0 77 15 142
130 69 122 118 121 187 -3 58 -107 79 -127 133 -127 54 0 82 24 123 107 78
154 136 149 205 -17 26 -63 38 -81 61 -91 48 -20 78 1 78 52 0 65 -78 218
-129 253 -108 75 -231 32 -306 -107 l-29 -55 -33 57 c-68 121 -137 158 -252
135 -40 -8 -110 -77 -148 -144 -15 -28 -31 -50 -34 -50 -3 0 -16 19 -29 43
-37 67 -91 128 -126 143 -44 18 -136 18 -180 -1 -71 -29 -137 -113 -219 -277
-120 -239 -200 -349 -293 -404 -41 -25 -57 -29 -129 -29 -77 0 -84 2 -112 29
-37 36 -57 100 -66 218 -11 136 -9 139 86 167 44 14 91 33 104 43 13 10 28 18
33 18 18 0 133 133 153 177 62 136 100 344 107 585 4 159 3 169 -19 215 -38
79 -93 124 -176 144 -26 6 -67 20 -90 31 -116 54 -217 -76 -121 -157 35 -30
93 -33 140 -9 40 21 80 5 114 -45 21 -32 24 -46 24 -136 0 -111 -31 -356 -57
-450 -21 -77 -53 -145 -84 -181 -73 -87 -179 -134 -302 -134 -156 0 -290 78
-360 210 -48 92 -107 391 -110 567 -2 103 11 134 73 165 30 15 37 15 68 2 19
-7 54 -14 79 -14 36 0 50 6 74 29 73 74 -2 190 -104 161z"/>
</g>
</svg>
